<svg xmlns="http://www.w3.org/2000/svg" width="260" height="66.132" viewBox="0 0 260 66.132">
  <g id="Group_2" data-name="Group 2" transform="translate(-778.18 -56.635)">
    <g id="Symbols" transform="translate(778.18 56.635)">
      <g id="Logo-_-Nav-" data-name="Logo-/-Nav-" transform="translate(0 0)">
        <g id="logo-99minutos.6ca31ef5">
          <path id="Fill-1" d="M243.431,152.863v9.863h-5.012V152.7a6.047,6.047,0,0,0-.646-3.234,2.4,2.4,0,0,0-2.1-.97,3.445,3.445,0,0,0-2.587,1.132,4.169,4.169,0,0,0-1.132,3.234v9.863h-5.174V144.455h5.012v2.1a6.136,6.136,0,0,1,4.689-2.426,5.325,5.325,0,0,1,3.072.97,6.046,6.046,0,0,1,2.1,2.426,7.061,7.061,0,0,1,2.748-2.587,7.375,7.375,0,0,1,3.557-.97,7.076,7.076,0,0,1,5.174,1.94,7.352,7.352,0,0,1,1.941,5.5v11H250.06v-9.7c0-2.748-.97-4.2-3.072-4.2a3.219,3.219,0,0,0-2.587,1.132,4.55,4.55,0,0,0-.97,3.234Zm15.038-10.672a2.677,2.677,0,0,1-.809-2.1,3.07,3.07,0,0,1,.809-2.1,2.675,2.675,0,0,1,2.1-.809,3.406,3.406,0,0,1,2.1.809,2.677,2.677,0,0,1,.808,2.1,3.077,3.077,0,0,1-.808,2.1,2.679,2.679,0,0,1-2.1.808,3.074,3.074,0,0,1-2.1-.808Zm42.686,2.264h-4.528v9.863a4.168,4.168,0,0,1-1.132,3.234,3.444,3.444,0,0,1-2.586,1.132c-2.1,0-3.072-1.456-3.072-4.2v-9.863h-5.013v11c0,2.426.647,4.366,1.94,5.5a6.957,6.957,0,0,0,5.013,1.94,5.892,5.892,0,0,0,4.85-2.748v2.426h5.013V148.173h2.748v8.408a6.469,6.469,0,0,0,1.779,4.689,5.968,5.968,0,0,0,4.365,1.778,7.253,7.253,0,0,0,5.013-2.1l-1.94-3.557a3.072,3.072,0,0,1-2.426,1.294,1.47,1.47,0,0,1-1.294-.647,2.412,2.412,0,0,1-.485-1.616v-8.085h4.365v-3.719H309.4v-5.5h-5.013v5.5h-3.234Zm-43.171,0H263v18.271h-5.012V144.455Zm12.773,8.084v10.187h-5.012V144.455h5.012v2.1a6.654,6.654,0,0,1,5.174-2.264,5.614,5.614,0,0,1,4.689,2.1,7.469,7.469,0,0,1,1.94,5.336v11h-5.012V152.377c0-2.748-.97-4.2-3.072-4.2a3.219,3.219,0,0,0-2.587,1.132,3.953,3.953,0,0,0-1.132,3.234Zm63.222.97a9.155,9.155,0,0,1-2.749,6.629,9.762,9.762,0,0,1-13.582,0,9.37,9.37,0,0,1,0-13.259,9.764,9.764,0,0,1,13.582,0,9.158,9.158,0,0,1,2.749,6.629Zm-14.067,0a5.03,5.03,0,0,0,1.294,3.557,4.32,4.32,0,0,0,6.468,0,5.328,5.328,0,0,0,1.294-3.557,5.766,5.766,0,0,0-1.294-3.718,4.32,4.32,0,0,0-6.468,0,5.761,5.761,0,0,0-1.294,3.718Zm28.458,3.4a5.536,5.536,0,0,1-1.941,4.366,7.2,7.2,0,0,1-5.012,1.617,20.453,20.453,0,0,1-4.2-.647,11.285,11.285,0,0,1-3.881-2.1l2.264-3.234a9.867,9.867,0,0,0,5.983,2.264,4.777,4.777,0,0,0,1.617-.324c.324-.323.647-.646.647-.97a1.676,1.676,0,0,0-.808-1.132,10.479,10.479,0,0,0-2.264-.97c-.97-.324-1.779-.646-2.264-.808a6.607,6.607,0,0,1-1.779-.97,4.355,4.355,0,0,1-2.1-3.881,4.908,4.908,0,0,1,1.94-4.042,7.637,7.637,0,0,1,5.175-1.616,10.9,10.9,0,0,1,6.306,2.1l-1.94,3.4a7.843,7.843,0,0,0-4.689-1.617c-1.616,0-2.264.485-2.264,1.294,0,.485.324.808.808,1.132a9.242,9.242,0,0,0,2.426.97c1.132.324,1.94.646,2.426.808a6.6,6.6,0,0,1,1.778.97c1.132.324,1.779,1.617,1.779,3.4Z" transform="translate(-162.262 -115.511)" fill="#323634"/>
          <path id="Fill-8" d="M368.441,164.927a2.677,2.677,0,0,1-.808-2.1,3.076,3.076,0,0,1,.808-2.1,2.679,2.679,0,0,1,2.1-.808,3.41,3.41,0,0,1,2.1.808,2.679,2.679,0,0,1,.808,2.1,3.074,3.074,0,0,1-.808,2.1,2.678,2.678,0,0,1-2.1.809,2.793,2.793,0,0,1-2.1-.809" transform="translate(-179.909 -118.36)" fill="#85c440"/>
          <path id="Fill-9" d="M384.359,159.356a5.6,5.6,0,0,0,4.527-2.587l2.911,3.4a10.4,10.4,0,0,1-7.6,3.719,9.14,9.14,0,0,1-6.791-2.587,8.677,8.677,0,0,1-2.749-6.791,9.121,9.121,0,0,1,9.379-9.378,11.123,11.123,0,0,1,3.88.808,9.985,9.985,0,0,1,3.557,2.426l-2.587,3.4a6.657,6.657,0,0,0-2.1-1.617,6.785,6.785,0,0,0-2.425-.646,5.215,5.215,0,0,0-3.4,1.294,4.514,4.514,0,0,0-1.456,3.557,4.3,4.3,0,0,0,1.456,3.557,4.112,4.112,0,0,0,3.4,1.456" transform="translate(-180.789 -116.507)" fill="#85c440"/>
          <path id="Fill-10" d="M413.331,154.5a9.158,9.158,0,0,1-2.748,6.629,9.763,9.763,0,0,1-13.583,0,9.37,9.37,0,0,1,0-13.259,9.765,9.765,0,0,1,13.583,0,9.161,9.161,0,0,1,2.748,6.629Zm-13.905,0a5.03,5.03,0,0,0,1.294,3.557,4.32,4.32,0,0,0,6.468,0,5.328,5.328,0,0,0,1.294-3.557,5.766,5.766,0,0,0-1.294-3.718,4.32,4.32,0,0,0-6.468,0,5,5,0,0,0-1.294,3.718Z" transform="translate(-183.244 -116.507)" fill="#85c440"/>
          <path id="Fill-11" d="M434.4,153.835V163.7h-5.012V153.673a6.046,6.046,0,0,0-.646-3.234,2.4,2.4,0,0,0-2.1-.97,3.444,3.444,0,0,0-2.587,1.132,4.169,4.169,0,0,0-1.132,3.234V163.7h-5.012V145.427h5.012v2.1a6.136,6.136,0,0,1,4.689-2.426,5.325,5.325,0,0,1,3.072.97,6.046,6.046,0,0,1,2.1,2.426,7.055,7.055,0,0,1,2.748-2.587,7.375,7.375,0,0,1,3.557-.97,7.077,7.077,0,0,1,5.174,1.94,7.351,7.351,0,0,1,1.94,5.5v11H441.2v-9.7c0-2.748-.97-4.2-3.072-4.2a3.219,3.219,0,0,0-2.587,1.132,3.951,3.951,0,0,0-1.132,3.234" transform="translate(-186.208 -116.484)" fill="#85c440"/>
          <path id="Fill-12" d="M184.013,143.566a6.523,6.523,0,0,0-2.587-2.911,8.7,8.7,0,0,0-4.2-1.455,8.1,8.1,0,0,0-6.145,1.616,6.948,6.948,0,0,0-2.91,5.5,7.548,7.548,0,0,0,1.616,5.983,7.19,7.19,0,0,0,5.175,2.748,7.959,7.959,0,0,0,4.688-.97,7.373,7.373,0,0,1-1.94,3.88,4.015,4.015,0,0,1-3.557,1.132,3.389,3.389,0,0,1-1.778-.646L169.3,162a8.8,8.8,0,0,0,1.778.97,9.59,9.59,0,0,0,3.072.808,9.178,9.178,0,0,0,6.953-2.1,12.654,12.654,0,0,0,2.587-3.557,23.954,23.954,0,0,0,1.455-5.659,18.33,18.33,0,0,0-1.132-8.892Zm-5.336,6.306a3.9,3.9,0,0,1-2.748.646,2.971,2.971,0,0,1-2.264-1.294,4.739,4.739,0,0,1-.646-2.587,3.387,3.387,0,0,1,1.131-2.264,2.908,2.908,0,0,1,2.587-.646,3.618,3.618,0,0,1,2.426,1.293,3.807,3.807,0,0,1,.808,2.587,4,4,0,0,1-1.294,2.264Z" transform="translate(-154.908 -115.754)" fill="#323634"/>
          <path id="Fill-13" d="M204.532,143.566a6.53,6.53,0,0,0-2.587-2.911,8.7,8.7,0,0,0-4.2-1.455,8.1,8.1,0,0,0-6.144,1.616,6.947,6.947,0,0,0-2.911,5.5A7.548,7.548,0,0,0,190.3,152.3a7.188,7.188,0,0,0,5.174,2.748,7.962,7.962,0,0,0,4.689-.97,7.379,7.379,0,0,1-1.94,3.88,4.015,4.015,0,0,1-3.557,1.132,3.387,3.387,0,0,1-1.778-.646L189.817,162a8.834,8.834,0,0,0,1.779.97,9.584,9.584,0,0,0,3.072.808,9.179,9.179,0,0,0,6.953-2.1,12.635,12.635,0,0,0,2.587-3.557,23.954,23.954,0,0,0,1.456-5.659c.323-3.718,0-6.629-1.132-8.892Zm-5.336,6.306a3.906,3.906,0,0,1-2.749.646,2.972,2.972,0,0,1-2.264-1.294,4.747,4.747,0,0,1-.646-2.587,3.392,3.392,0,0,1,1.132-2.264,2.907,2.907,0,0,1,2.587-.646,3.615,3.615,0,0,1,2.425,1.293,3.8,3.8,0,0,1,.809,2.587,4.01,4.01,0,0,1-1.294,2.264Z" transform="translate(-157.479 -115.754)" fill="#323634"/>
          <path id="Fill-14" d="M213.493,132.458l5.013-5.013s-3.234-8.246-14.875-15.037l-5.013,5.013,5.821,5.82-1.294,1.294a30.393,30.393,0,0,0-50.125,23.284,30.4,30.4,0,1,0,53.52-19.888l1.294-1.294Zm-6.306,14.875a23.851,23.851,0,1,1-23.769-24.092,24.014,24.014,0,0,1,23.769,24.092Z" transform="translate(-153.021 -112.408)" fill="#85c440"/>
        </g>
      </g>
    </g>
  </g>
</svg>
